<svg version="1.2" xmlns="http://www.w3.org/2000/svg" viewBox="0 0 30 30" width="30" height="30">
	<title>image</title>
	<style>
		.s0 { fill: #ffffff } 
	</style>
	<path id="Layer" fill-rule="evenodd" class="s0" d="m15 24c-5 0-9-4-9-9 0-5 4-9 9-9 5 0 9 4 9 9 0 5-4 9-9 9zm0-1.8c4 0 7.2-3.2 7.2-7.2 0-4-3.2-7.2-7.2-7.2-4 0-7.2 3.2-7.2 7.2 0 4 3.2 7.2 7.2 7.2zm0.9-4.1h0.5c0.4 0 0.8 0.4 0.8 1 0 0.4-0.3 0.8-0.8 0.8h-2.8c-0.4 0-0.9-0.3-0.9-0.8 0-0.5 0.4-1 0.9-1h0.5v-2.7h-0.4c-0.5 0-1-0.3-1-0.8 0-0.5 0.4-0.9 1-0.9h1.3q0.4 0 0.6 0.2 0.3 0.3 0.3 0.7zm-0.9-5.4c-0.7 0-1.3-0.7-1.3-1.4 0-0.7 0.6-1.3 1.3-1.3 0.7 0 1.4 0.6 1.4 1.3 0 0.7-0.7 1.4-1.4 1.4z"/>
</svg>