<svg version="1.2" xmlns="http://www.w3.org/2000/svg" viewBox="0 0 30 30" width="30" height="30">
	<title>image</title>
	<style>
		.s0 { fill: #ffffff } 
	</style>
	<path id="Layer" fill-rule="evenodd" class="s0" d="m10.1 10.7c0-2.6 2.2-4.7 4.9-4.7 2.7 0 4.9 2.1 4.9 4.7 0 1.1-0.1 2.7-0.7 4.3 1.8 0.7 4.8 1.8 4.8 4.5v1.8c0 1-3.9 2.7-9 2.7-5.1 0-9-1.7-9-2.7v-1.8c0-2.7 3-3.8 4.8-4.5-0.6-1.6-0.7-3.2-0.7-4.3zm-2.3 8.8v1.2c0.3 0.2 2.8 1.5 7.2 1.5 4.4 0 6.9-1.3 7.2-1.5v-1.2c0-1.6-3.4-2.8-3.7-2.8-0.7 1.3-1.9 2.3-3.5 2.3-1.6 0-2.8-1-3.5-2.3-0.3 0-3.7 1.2-3.7 2.8zm7.2-2.3c1.8 0 3.1-3.2 3.1-6.5 0-1.6-1.3-2.9-3.1-2.9-1.8 0-3.2 1.3-3.2 2.9 0 3.3 1.4 6.5 3.2 6.5z"/>
</svg>