<svg version="1.2" xmlns="http://www.w3.org/2000/svg" viewBox="0 0 30 30" width="30" height="30">
	<title>image</title>
	<style>
		.s0 { fill: #ffffff } 
	</style>
	<path id="Layer" fill-rule="evenodd" class="s0" d="m11 21.7c-1.8 0-3.5 1.2-3.6 1.2-0.6 0.5-1.4 0-1.4-0.7v-12.6q0-0.3 0.2-0.5c0.2-0.3 1.7-2.2 4.7-2.2 1.5 0 2.9 0.6 4.1 2 1.1-1.3 2.6-2 4.1-2 2.9 0 4.5 1.9 4.7 2.2q0.2 0.2 0.2 0.5v12.6c0 0.7-0.8 1.2-1.4 0.7-0.1 0-1.7-1.2-3.6-1.2-1.9 0-3.5 1.2-3.5 1.3q-0.2 0.1-0.5 0.1-0.3 0-0.5-0.1c0-0.1-1.6-1.3-3.5-1.3zm-3.2-11.7c0 0.1 0 10.3 0 10.7 1-0.5 2-0.7 3.2-0.8 1.1 0.1 2.1 0.3 3.1 0.8 0-0.4 0-10 0-10 0 0-1.1-2-3.2-2-1.9 0-2.9 1.1-3.1 1.3zm14.4 0c-0.2-0.2-1.2-1.3-3.1-1.3-2.1 0-3.2 2-3.2 2 0 0 0 9.6 0 10 1-0.5 2-0.7 3.1-0.8 1.2 0.1 2.2 0.3 3.2 0.8 0-0.4 0-10.6 0-10.7z"/>
</svg>