<svg version="1.2" xmlns="http://www.w3.org/2000/svg" viewBox="0 0 22 22" width="22" height="22">
	<title>image</title>
	<style>
		.s0 { fill: #ffffff } 
	</style>
	<path id="Layer" fill-rule="evenodd" class="s0" d="m6.6 4c0.3-0.9 1.3-1.2 2.1-0.8l2.6 1.4h6.1c0.9 0 1.6 0.7 1.6 1.6v11.2c0 0.9-0.7 1.6-1.6 1.6h-12.8c-0.9 0-1.6-0.7-1.6-1.6v-10.4c0-1.4 1.1-2.4 2.4-2.4h1zm-2 13.3h12.8v-0.8h-3.2c-1.8 0-3.2-1.4-3.2-3.2 0-1.7 1.4-3.2 3.2-3.2h3.2v-0.8h-12q-0.4 0-0.8-0.1zm3.4-12.7l-1.1 3.1h7zm6.2 7.1c-0.9 0-1.6 0.7-1.6 1.6 0 0.9 0.7 1.6 1.6 1.6h3.2v-3.2zm3.2-5.6h-3.1l3.1 1.6zm-12 0c-0.5 0-0.8 0.4-0.8 0.8 0 0.4 0.3 0.7 0.6 0.8l0.6-1.6zm8.8 8c-0.5 0-0.8-0.4-0.8-0.8 0-0.4 0.3-0.8 0.8-0.8 0.4 0 0.8 0.4 0.8 0.8 0 0.4-0.4 0.8-0.8 0.8z"/>
</svg>