<svg version="1.2" xmlns="http://www.w3.org/2000/svg" viewBox="0 0 30 30" width="30" height="30">
	<title>image</title>
	<style>
		.s0 { fill: #ffffff } 
	</style>
	<path id="Layer" fill-rule="evenodd" class="s0" d="m18.6 22.2h0.9c0.5 0 0.9 0.4 0.9 0.9 0 0.5-0.4 0.9-0.9 0.9h-12.6c-0.5 0-0.9-0.4-0.9-0.9 0-0.5 0.4-0.9 0.9-0.9h0.9v-14.4c0-1 0.8-1.8 1.8-1.8h7.2c1 0 1.8 0.8 1.8 1.8v6.3h1.8c0.5 0 0.9 0.4 0.9 0.9v3.1c0 0.3 0.2 0.5 0.4 0.5 0.3 0 0.5-0.2 0.5-0.5v-6l-1.6-1.9c-0.3-0.4-0.2-1 0.2-1.3 0.3-0.3 0.9-0.2 1.2 0.1l1.8 2.3q0.2 0.2 0.2 0.6v6.2c0 1.3-1 2.3-2.3 2.3-1.2 0-2.2-1-2.2-2.3v-2.2h-0.9zm-1.8-14.4c0 0-7.2 0-7.2 0 0 0 0 10.2 0 14.4h7.2zm-6.3 0.9h5.4v5.4h-5.4zm1.8 1.8v1.8h1.8v-1.8z"/>
</svg>