<svg version="1.2" xmlns="http://www.w3.org/2000/svg" viewBox="0 0 30 30" width="30" height="30">
	<title>image</title>
	<style>
		.s0 { fill: #ffffff } 
	</style>
	<path id="Layer" fill-rule="evenodd" class="s0" d="m15 6c5 0 9 4 9 9 0 5-4 9-9 9-5 0-9-4-9-9 0-5 4-9 9-9zm-7.1 9.9c0.3 2.6 1.9 4.7 4.2 5.7-0.8-1.5-1.4-3.6-1.6-5.7zm4.3-7.5c-2.3 1-4 3.1-4.3 5.7h2.7c0.1-2.1 0.7-4.2 1.6-5.7zm5.8 0c0.8 1.5 1.4 3.6 1.5 5.7h2.7c-0.3-2.6-2-4.7-4.2-5.7zm1.5 7.5c-0.1 2.1-0.7 4.2-1.6 5.7 2.3-1 4-3.1 4.3-5.7zm-6 4.4c0.6 1.2 1.3 1.9 1.5 1.9 0.3 0 1-0.7 1.6-1.9 0.6-1.2 1-2.8 1.1-4.4h-5.3c0.1 1.6 0.5 3.2 1.1 4.4zm1.5-12.5c-0.2 0-0.9 0.7-1.5 1.9-0.6 1.2-1 2.8-1.1 4.4h5.3c-0.1-1.6-0.5-3.2-1.1-4.4-0.6-1.2-1.3-1.9-1.6-1.9z"/>
</svg>