<svg version="1.2" xmlns="http://www.w3.org/2000/svg" viewBox="0 0 30 30" width="30" height="30">
	<title>image</title>
	<style>
		.s0 { fill: #ffffff } 
	</style>
	<path id="Layer" fill-rule="evenodd" class="s0" d="m12.9 17.4q0.6 0.3 1.3 0.4v-8.9h-0.4c-0.5 0-0.6-0.3-0.4-0.7l1.2-1.9c0.2-0.4 0.6-0.4 0.8 0l1.2 1.9c0.3 0.4 0.1 0.7-0.4 0.7h-0.4v6.4q0.7-0.1 1.3-0.3c1.3-0.5 2-1.4 2-2.9h-0.4c-0.2 0-0.4-0.1-0.4-0.4v-2.4c0-0.3 0.2-0.4 0.4-0.4h2.4c0.3 0 0.4 0.2 0.4 0.4v2.4c0 0.3-0.1 0.4-0.4 0.4h-0.4c0 2.2-1.1 3.6-2.9 4.4q-0.9 0.4-1.9 0.5 0 0-0.1 0v3.1c0.7 0.3 1.2 1 1.2 1.9 0 1.1-0.9 2-2 2-1.1 0-2-0.9-2-2 0-0.9 0.5-1.6 1.2-1.9v-0.7c-0.7 0-1.4-0.2-2-0.5-1.7-0.7-2.9-2.1-2.9-4.1-0.5-0.3-0.8-0.8-0.8-1.4 0-0.9 0.7-1.7 1.6-1.7 0.9 0 1.6 0.8 1.6 1.7 0 0.6-0.3 1.1-0.8 1.4 0.1 1.3 0.8 2.1 2 2.6z"/>
</svg>