<svg version="1.2" xmlns="http://www.w3.org/2000/svg" viewBox="0 0 30 30" width="30" height="30">
	<title>image</title>
	<style>
		.s0 { fill: #ffffff } 
	</style>
	<path id="Layer" fill-rule="evenodd" class="s0" d="m22.2 13.2c0 2.6-1.2 5.2-3.2 7.6-1.4 1.7-3.3 3.2-4 3.2-0.7 0-2.6-1.5-4-3.2-2-2.4-3.2-5-3.2-7.6 0-4 3.2-7.2 7.2-7.2 4 0 7.2 3.2 7.2 7.2zm-9.8 6.4c0.6 0.8 1.3 1.5 2 2 0.3 0.2 0.6 0.5 0.6 0.5 0 0 0.4-0.3 0.6-0.5 0.7-0.5 1.4-1.2 2-2 1.8-2.1 2.8-4.3 2.8-6.4 0-3-2.4-5.4-5.4-5.4-3 0-5.4 2.4-5.4 5.4 0 2.1 1 4.3 2.8 6.4zm-0.1-6.4c0-1.5 1.2-2.7 2.7-2.7 1.5 0 2.7 1.2 2.7 2.7 0 1.5-1.2 2.7-2.7 2.7-1.5 0-2.7-1.2-2.7-2.7zm1.8 0c0 0.5 0.4 0.9 0.9 0.9 0.5 0 0.9-0.4 0.9-0.9 0-0.5-0.4-0.9-0.9-0.9-0.5 0-0.9 0.4-0.9 0.9z"/>
</svg>