<svg version="1.2" xmlns="http://www.w3.org/2000/svg" viewBox="0 0 30 30" width="30" height="30">
	<title>image</title>
	<style>
		.s0 { fill: #ffffff } 
	</style>
	<path id="Layer" fill-rule="evenodd" class="s0" d="m9.6 11.4c0-3 2.4-5.4 5.4-5.4 3 0 5.4 2.4 5.4 5.4v2.3c1 0 1.8 0.8 1.8 1.8v6.7c0 1-0.8 1.8-1.8 1.8h-10.8c-1 0-1.8-0.8-1.8-1.8v-6.7c0-1 0.8-1.8 1.8-1.8zm0 4v6.7h10.8v-6.7zm1.8-1.8h7.2v-2.2c0-2-1.6-3.7-3.6-3.7-2 0-3.6 1.7-3.6 3.7zm1.8 4.4c0-0.9 0.8-1.7 1.8-1.7 1 0 1.8 0.8 1.8 1.7 0 0.7-0.4 1.3-0.9 1.6v0.7c0 0.5-0.4 0.9-0.9 0.9-0.5 0-0.9-0.4-0.9-0.9v-0.7c-0.5-0.3-0.9-0.9-0.9-1.6z"/>
</svg>