<svg version="1.2" xmlns="http://www.w3.org/2000/svg" viewBox="0 0 30 30" width="30" height="30">
	<title>image</title>
	<style>
		.s0 { fill: #ffffff } 
	</style>
	<path id="Layer" fill-rule="evenodd" class="s0" d="m20.1 12.5c-0.4-0.4-0.4-0.9 0-1.2 0.3-0.4 0.8-0.4 1.1 0l1.7 1.6c0.3 0.4 0.3 0.9 0 1.2l-1.7 1.7c-0.3 0.3-0.8 0.3-1.1 0-0.4-0.3-0.4-0.8 0-1.2l0.2-0.2h-4.3c-0.4 0-0.8-0.4-0.8-0.9 0-0.4 0.4-0.8 0.8-0.8h4.3zm-6.5 8.6v1.8c0 0.9-0.9 1.4-1.7 1l-4.3-2.7c-0.4-0.3-0.7-0.8-0.7-1.4v-12.5q0-0.4 0.2-0.7 0 0 0-0.1c0.3-0.3 0.6-0.5 1-0.5h9.2c0.7 0 1.3 0.6 1.3 1.3v2.1c0 0.4-0.4 0.8-0.8 0.8-0.5 0-0.9-0.4-0.9-0.8v-1.7h-6.2l2.1 1.3c0.5 0.3 0.8 0.9 0.8 1.4v9h3.3v-1.7c0-0.4 0.4-0.8 0.9-0.8 0.4 0 0.8 0.4 0.8 0.8v2.1c0 0.7-0.6 1.3-1.3 1.3zm-1.6-10.6l-3.4-2.1v11.4l3.4 2.1z"/>
</svg>