<svg version="1.2" xmlns="http://www.w3.org/2000/svg" viewBox="0 0 30 30" width="30" height="30">
	<title>image</title>
	<style>
		.s0 { fill: #ffffff } 
	</style>
	<path id="Layer" fill-rule="evenodd" class="s0" d="m8 6.7c0.3-0.4 0.9-0.4 1.2 0 0.4 0.3 0.4 0.9 0 1.2-0.9 1-1.4 2.2-1.4 3.5 0 1.4 0.5 2.6 1.5 3.6 0.3 0.3 0.3 0.9 0 1.2-0.4 0.4-0.9 0.4-1.3 0-1.3-1.2-2-2.9-2-4.8 0-1.8 0.7-3.5 2-4.7zm14 9.5c-0.4 0.4-0.9 0.4-1.3 0-0.3-0.3-0.3-0.9 0-1.2 1-1 1.5-2.2 1.5-3.6 0-1.3-0.5-2.5-1.4-3.4-0.4-0.4-0.4-1 0-1.3 0.3-0.4 0.9-0.4 1.2 0 1.3 1.2 2 2.9 2 4.7 0 1.9-0.7 3.6-2 4.8zm-12.1-7.6c0.3-0.4 0.9-0.4 1.3 0 0.3 0.3 0.3 0.9 0 1.3-0.5 0.4-0.7 0.9-0.7 1.5 0 0.7 0.2 1.2 0.7 1.6 0.3 0.4 0.3 1 0 1.3-0.4 0.4-0.9 0.4-1.3 0-0.8-0.7-1.2-1.8-1.2-2.9 0-1 0.4-2.1 1.2-2.8zm3.3 2.8c0-1 0.8-1.8 1.8-1.8 1 0 1.8 0.8 1.8 1.8 0 0.7-0.4 1.3-0.9 1.6v7c0 0.5-0.4 0.9-0.9 0.9-0.5 0-0.9-0.4-0.9-0.9v-7c-0.5-0.3-0.9-0.9-0.9-1.6zm6.9 2.9c-0.3 0.4-0.9 0.4-1.3 0-0.3-0.3-0.3-0.9 0-1.3 0.5-0.4 0.7-1 0.7-1.6 0-0.6-0.2-1.1-0.6-1.5-0.4-0.4-0.4-1 0-1.3 0.3-0.4 0.9-0.4 1.2 0 0.8 0.7 1.2 1.8 1.2 2.8 0 1.1-0.4 2.1-1.2 2.9zm-5.1 9.3c-0.5 0-0.9-0.4-0.9-0.9 0-0.5 0.4-0.9 0.9-0.9 0.5 0 0.9 0.4 0.9 0.9 0 0.5-0.4 0.9-0.9 0.9zm3.6 0c-0.5 0-0.9-0.4-0.9-0.9 0-0.5 0.4-0.9 0.9-0.9 0.5 0 0.9 0.4 0.9 0.9 0 0.5-0.4 0.9-0.9 0.9zm-7.2 0c-0.5 0-0.9-0.4-0.9-0.9 0-0.5 0.4-0.9 0.9-0.9 0.5 0 0.9 0.4 0.9 0.9 0 0.5-0.4 0.9-0.9 0.9z"/>
</svg>