<svg version="1.2" xmlns="http://www.w3.org/2000/svg" viewBox="0 0 30 30" width="30" height="30">
	<title>image</title>
	<style>
		.s0 { fill: #ffffff } 
	</style>
	<path id="Layer" fill-rule="evenodd" class="s0" d="m10.1 21.5c-1.4 0-2.5-1.1-2.5-2.4 0-0.9 0.5-1.7 1.3-2.1 0-0.3 0-3.2 0-3.2 0-2.9 1.9-5.2 4.5-5.9 0 0 0-0.2 0-0.3 0-0.9 0.7-1.6 1.6-1.6 0.9 0 1.6 0.7 1.6 1.6 0 0.1 0 0.3 0 0.3 2.6 0.7 4.5 3 4.5 5.9v3.2c0.8 0.4 1.3 1.2 1.3 2.1 0 1.3-1.1 2.4-2.5 2.4h-2.4c0 1.4-1.1 2.5-2.5 2.5-1.4 0-2.5-1.1-2.5-2.5zm4.1 0c0 0.5 0.4 0.9 0.9 0.9 0.4 0 0.8-0.4 0.8-0.9zm5.3-3.8v-3.9c0-2.5-2-4.5-4.5-4.5-2.5 0-4.5 2-4.5 4.5v3.9c0 0.3-0.2 0.5-0.4 0.5l-0.2 0.1c-0.4 0.1-0.6 0.4-0.6 0.8 0 0.4 0.3 0.8 0.8 0.8h9.8c0.5 0 0.8-0.4 0.8-0.8 0-0.4-0.2-0.7-0.6-0.8l-0.2-0.1c-0.2 0-0.4-0.2-0.4-0.5z"/>
</svg>