<svg version="1.2" xmlns="http://www.w3.org/2000/svg" viewBox="0 0 30 30" width="30" height="30">
	<title>image</title>
	<style>
		.s0 { fill: #ffffff } 
	</style>
	<path id="Layer" fill-rule="evenodd" class="s0" d="m18 9l0.7 0.4c0 0 2-0.4 2.1-0.4 0.6-0.1 1.3 0.2 1.6 0.8l0.8 1.4c0.3 0.6 0.3 1.3-0.1 1.7-0.1 0.2-1.4 1.7-1.4 1.7q0 0 0.1 0.4c0 0.1-0.1 0.4-0.1 0.4 0 0 1.3 1.5 1.4 1.6 0.4 0.5 0.4 1.2 0.1 1.8l-0.8 1.4c-0.3 0.6-1 0.9-1.6 0.8 0 0-2.1-0.4-2.1-0.4l-0.7 0.4c0 0-0.7 1.9-0.7 2-0.2 0.6-0.9 1-1.5 1h-1.6c-0.6 0-1.3-0.4-1.5-0.9 0-0.2-0.7-2.1-0.7-2.1l-0.7-0.4c0 0-2 0.4-2.1 0.4-0.6 0.1-1.3-0.2-1.6-0.8l-0.8-1.4c-0.3-0.6-0.3-1.3 0.1-1.7 0.1-0.2 1.4-1.7 1.4-1.7q0 0 0-0.4c0-0.1 0-0.4 0-0.4 0 0-1.3-1.5-1.4-1.6-0.4-0.5-0.4-1.2-0.1-1.8l0.8-1.4c0.3-0.6 1-0.9 1.6-0.8 0.1 0 2.1 0.4 2.1 0.4l0.7-0.4c0 0 0.7-1.9 0.7-2 0.2-0.6 0.9-1 1.5-1h1.6c0.6 0 1.3 0.4 1.5 0.9 0 0.2 0.7 2.1 0.7 2.1zm-1.4 1.3l-0.2-0.4c-0.1-0.6-0.6-1.9-0.7-2.1 0 0-1.4 0-1.4 0-0.1 0.2-0.6 1.5-0.7 2.1l-0.2 0.4-0.3 0.1q-0.6 0.3-1.1 0.6l-0.3 0.3-0.4-0.1c-0.6-0.1-2-0.4-2.2-0.4 0 0-0.7 1.2-0.7 1.2 0.1 0.1 1 1.2 1.4 1.7l0.3 0.3v0.4q0 0.3 0 0.6 0 0.3 0 0.6v0.4l-0.3 0.3c-0.4 0.5-1.3 1.6-1.4 1.7 0 0 0.7 1.2 0.7 1.2 0.2 0 1.6-0.3 2.2-0.4l0.4-0.1 0.3 0.3q0.5 0.3 1.1 0.6l0.3 0.1 0.2 0.4c0.1 0.6 0.6 1.9 0.7 2.1 0 0 1.4 0 1.4 0 0.1-0.2 0.6-1.5 0.7-2.1l0.2-0.4 0.3-0.1q0.6-0.3 1.1-0.6l0.3-0.3 0.4 0.1c0.6 0.1 2 0.4 2.2 0.4 0 0 0.7-1.2 0.7-1.2-0.1-0.1-1-1.2-1.4-1.7l-0.3-0.3v-0.4q0.1-0.3 0.1-0.6 0-0.3-0.1-0.6v-0.4l0.3-0.3c0.4-0.5 1.3-1.6 1.4-1.7 0 0-0.7-1.2-0.7-1.2-0.2 0-1.6 0.3-2.2 0.4l-0.4 0.1-0.3-0.3q-0.5-0.3-1.1-0.6zm-1.5 7.5c-1.5 0-2.7-1.2-2.7-2.7 0-1.5 1.2-2.7 2.7-2.7 1.5 0 2.7 1.2 2.7 2.7 0 1.5-1.2 2.7-2.7 2.7zm0-1.8c0.5 0 0.9-0.4 0.9-0.9 0-0.5-0.4-0.9-0.9-0.9-0.5 0-0.9 0.4-0.9 0.9 0 0.5 0.4 0.9 0.9 0.9z"/>
</svg>