<svg version="1.2" xmlns="http://www.w3.org/2000/svg" viewBox="0 0 30 30" width="30" height="30">
	<title>image</title>
	<style>
		.s0 { fill: #ffffff } 
	</style>
	<path id="Layer" fill-rule="evenodd" class="s0" d="m6.9 23.1v-15.3c0-1 0.8-1.8 1.8-1.8h12.6c1 0 1.8 0.8 1.8 1.8v15.3c0 0.7-0.7 1.1-1.3 0.8l-1.4-0.7-1.4 0.7c-0.3 0.1-0.5 0.1-0.8 0l-1.4-0.7-1.4 0.7c-0.3 0.1-0.5 0.1-0.8 0l-1.4-0.7-1.4 0.7c-0.2 0.1-0.5 0.1-0.8 0l-1.4-0.7-1.4 0.7c-0.6 0.3-1.3-0.1-1.3-0.8zm14.4-15.3h-12.6v13.8l0.5-0.2c0.3-0.1 0.5-0.1 0.8 0l1.4 0.7 1.4-0.7c0.3-0.1 0.5-0.1 0.8 0l1.4 0.7 1.4-0.7c0.3-0.1 0.5-0.1 0.8 0l1.4 0.7 1.4-0.7c0.3-0.1 0.5-0.1 0.8 0l0.5 0.2zm-6.3 9.9c0-0.5 0.4-0.9 0.9-0.9h2.7c0.5 0 0.9 0.4 0.9 0.9 0 0.5-0.4 0.9-0.9 0.9h-2.7c-0.5 0-0.9-0.4-0.9-0.9zm-4.5-3.6c0-0.5 0.4-0.9 0.9-0.9h7.2c0.5 0 0.9 0.4 0.9 0.9 0 0.5-0.4 0.9-0.9 0.9h-7.2c-0.5 0-0.9-0.4-0.9-0.9zm0-3.6c0-0.5 0.4-0.9 0.9-0.9h7.2c0.5 0 0.9 0.4 0.9 0.9 0 0.5-0.4 0.9-0.9 0.9h-7.2c-0.5 0-0.9-0.4-0.9-0.9z"/>
</svg>