<svg width="33" height="31" viewBox="0 0 33 31" fill="none" xmlns="http://www.w3.org/2000/svg">
<path d="M5.20014 26.2537C5.22928 26.2806 5.26209 26.3076 5.29121 26.3344L6.44223 24.8249C7.39658 23.0935 7.76813 21.5132 7.77904 20.1683C7.76445 19.4489 7.65516 18.7362 7.4585 18.0436C7.32007 17.6267 7.2181 17.1963 7.15251 16.7627C7.15251 16.7593 7.15251 16.7526 7.15251 16.7458C7.10881 16.4567 7.07966 16.1608 7.06512 15.865C6.86476 11.0976 10.8788 7.01272 16.0293 6.74375L15.9929 6.71351C17.2204 6.64287 19.0088 6.89169 20.5096 6.5286C22.065 6.12176 23.4782 5.33169 24.6002 4.24236C24.6548 4.18858 24.7167 4.14151 24.7821 4.10117L25.8384 2.71937C21.4165 -0.111468 15.5812 -0.8881 10.2268 1.13248C1.81989 4.29956 -2.2087 13.1619 1.22618 20.9215C2.08582 22.8615 3.32789 24.5492 4.84317 25.9377C4.95973 26.0453 5.07631 26.1494 5.1965 26.2537H5.20014Z" fill="url(#paint0_linear_6_2053)"/>
<path d="M26.6096 5.34501C26.5842 5.41561 26.5549 5.48956 26.5113 5.5568C25.5169 7.27479 25.0944 9.87032 25.1854 10.8958C25.3347 12.6003 25.8993 13.7064 25.7244 15.0109C25.8557 19.7413 21.849 23.7589 16.7384 24.0179C16.7384 24.0179 16.7312 24.0179 16.7275 24.0179C15.602 24.085 15.4709 23.9842 14.44 24.0279C12.3128 24.1153 10.0436 24.9356 8.46998 26.4687L7.4173 27.8506C7.71966 28.0354 8.0256 28.2103 8.33523 28.3851C8.47725 28.4592 8.61932 28.5297 8.76139 28.6003C12.9175 30.6243 17.9769 30.9974 22.6647 29.229C31.0717 26.0586 35.1002 17.1962 31.6654 9.43659C30.7256 7.31518 29.3232 5.49291 27.6113 4.03378L26.6096 5.34501Z" fill="url(#paint1_linear_6_2053)"/>
<defs>
<linearGradient id="paint0_linear_6_2053" x1="12.9193" y1="1.41633e-06" x2="12.9193" y2="26.3344" gradientUnits="userSpaceOnUse">
<stop stop-color="white"/>
<stop offset="1" stop-color="white" stop-opacity="0.8"/>
</linearGradient>
<linearGradient id="paint1_linear_6_2053" x1="20.1544" y1="4.03378" x2="20.1544" y2="30.3615" gradientUnits="userSpaceOnUse">
<stop stop-color="white" stop-opacity="0.8"/>
<stop offset="1" stop-color="white"/>
</linearGradient>
</defs>
</svg>
