<svg version="1.2" xmlns="http://www.w3.org/2000/svg" viewBox="0 0 171 18" width="171" height="18">
	<title>image</title>
	<defs>
		<clipPath clipPathUnits="userSpaceOnUse" id="cp1">
			<path d="m0 0h171v18h-171z"/>
		</clipPath>
		<linearGradient id="g1" x1="17.1" y1="12.1" x2="6" y2="0" gradientUnits="userSpaceOnUse">
			<stop offset="0" stop-color="#ffffff"/>
			<stop offset="1" stop-color="#d5d5d5"/>
		</linearGradient>
		<linearGradient id="g2" x1="16.5" y1="11.4" x2="-0.4" y2="17" gradientUnits="userSpaceOnUse">
			<stop offset="0" stop-color="#d4d4d4"/>
			<stop offset="1" stop-color="#f9f9f9"/>
		</linearGradient>
		<linearGradient id="g3" x1=".3" y1="15.3" x2="6" y2="-0.3" gradientUnits="userSpaceOnUse">
			<stop offset="0" stop-color="#ffffff"/>
			<stop offset="1" stop-color="#d4d4d4"/>
		</linearGradient>
		<linearGradient id="g4" x1="4.7" y1="0" x2="4.7" y2="13.7" gradientUnits="userSpaceOnUse">
			<stop offset="0" stop-color="#dfdfdf" stop-opacity="1"/>
			<stop offset="1" stop-color="#a4a4a4" stop-opacity=".49"/>
		</linearGradient>
	</defs>
	<style>
		.s0 { fill: #fafafa } 
		.s1 { opacity: .1;fill: #000000 } 
		.s2 { fill: url(#g1) } 
		.s3 { opacity: .3;fill: #a4a4a4 } 
		.s4 { fill: url(#g2) } 
		.s5 { fill: url(#g3) } 
		.s6 { opacity: .3;fill: url(#g4) } 
	</style>
	<g id="Clip-Path" clip-path="url(#cp1)">
		<g id="Layer">
			<path id="Layer" fill-rule="evenodd" class="s0" d="m30.1 5.8h-5.2v6.4h5.2v1.3h-6.6v-9h6.6zm-4.4 3.7v-1.2h3.5l-1.2 1.2z"/>
			<path id="Layer" fill-rule="evenodd" class="s0" d="m103.8 5.8h-5.2v6.4h5.2v1.3h-6.6v-9h6.6zm-4.4 3.7v-1.2h3.6l-1.2 1.2z"/>
			<path id="Layer" class="s0" d="m34.5 4.2h1.5 0.2l2.3 3.2 2.4-3.2h0.2 1.5 0.1l-3.3 4.3 3.7 4.7-0.1 0.1h-1.5l-0.2-0.1-2.8-3.6-2.7 3.6-0.2 0.1h-1.5l-0.1-0.1 3.7-4.7-3.3-4.3z"/>
			<path id="Layer" class="s0" d="m47.1 4.2h7.1l-5.1 7.8h5.1l0.1 0.1v1.1l-0.1 0.1h-7.5v-0.1l5.1-7.7h-4.7v-0.1-1.2z"/>
			<path id="Layer" fill-rule="evenodd" class="s0" d="m63.7 4c2.6 0 4.8 2.1 4.8 4.7 0 2.6-2.2 4.8-4.8 4.8-2.7 0-4.8-2.2-4.8-4.8 0-2.6 2.1-4.7 4.8-4.7zm0 1.3c-1.8 0-3.3 1.6-3.3 3.4 0 1.9 1.5 3.4 3.3 3.4 1.8 0 3.3-1.5 3.3-3.4 0-1.8-1.5-3.4-3.3-3.4z"/>
			<path id="Layer" fill-rule="evenodd" class="s0" d="m141.9 4c2.6 0 4.8 2.1 4.8 4.7 0 2.6-2.2 4.8-4.8 4.8-2.7 0-4.8-2.2-4.8-4.8 0-2.6 2.1-4.7 4.8-4.7zm0 1.3c-1.8 0-3.3 1.6-3.3 3.4 0 1.9 1.5 3.4 3.3 3.4 1.8 0 3.3-1.5 3.3-3.4 0-1.8-1.5-3.4-3.3-3.4z"/>
			<path id="Layer" class="s0" d="m163.7 4.2h1.1 0.1v3.2l3.7-3.2h0.1 1.7 0.1l-4.6 3.9 5.1 5.1-0.1 0.1h-1.7l-0.1-0.1-4.2-4.3v4.3l-0.1 0.1h-1.1l-0.1-0.1v-9z"/>
			<path id="Layer" class="s0" d="m108.8 4.2h7.1 0.1v1.2l-0.1 0.1h-2.9v7.7 0.1h-1.2l-0.1-0.1v-7.7h-2.9v-0.1-1.2z"/>
			<path id="Layer" class="s0" d="m120.5 4.2h1.3l2.1 6.9 2-6.7 0.1-0.1h1.3v0.1l2 6.7 2.1-6.9h0.1 1.3l-2.8 9v0.1h-1.2l-0.1-0.1-2.1-6.7-2 6.7-0.1 0.1h-1.2l-0.1-0.1-2.8-9z"/>
			<path id="Layer" class="s0" d="m89.4 11.8l-5.8-7.3h-1.3v9h1.3v-7.3l5.8 7.3h1.3v-9h-1.3z"/>
			<path id="Layer" class="s0" d="m157.7 9.4q0.2-0.2 0.3-0.3c0.5-0.5 0.7-1.2 0.7-1.9 0-1.3-0.9-2.7-2.7-2.7h-5.2v9.3h1.4v-8.2h3.8c1.1 0 1.6 0.8 1.6 1.6 0 0.4-0.2 0.9-0.4 1.1q-0.4 0.5-1.1 0.5h-1.5-2v1.2h2.7l2.3 3.7h1.4l-2.3-3.8c0.5-0.1 0.8-0.3 1-0.5z"/>
			<path id="Layer" fill-rule="evenodd" class="s1" d="m7.2 13.6q-1.2 0-2.2-0.3 0.1 1.3 0.5 2.6c2.5-0.6 4.8-2 6.6-3.9-1.4 1-3.1 1.6-4.9 1.6z"/>
			<path id="Layer" fill-rule="evenodd" class="s2" d="m11.6 2.2l-3.9-2.2c-1.1 1.4-2 2.9-2.5 4.6 3 0.6 5.6 2.2 7.5 4.4 1.2 1.3 2.1 2.8 2.7 4.5v-9l-3.8-2.3z"/>
			<path id="Layer" fill-rule="evenodd" class="s3" d="m6.5 1.7q0.1-0.1 0.1-0.1z"/>
			<path id="Layer" fill-rule="evenodd" class="s4" d="m5.2 13.4c-1.7 0.3-3.5 0.4-5.2 0.1l3.9 2.2 3.8 2.3 3.9-2.3 3.8-2.2c-0.6-1.7-1.5-3.2-2.7-4.5-2 2.3-4.6 3.8-7.5 4.4z"/>
			<path id="Layer" fill-rule="evenodd" class="s5" d="m0 4.5v9c1.7 0.3 3.5 0.3 5.2-0.1-0.9-2.9-0.9-6 0-8.8 0.5-1.7 1.4-3.2 2.5-4.6l-3.8 2.3z"/>
			<path id="Layer" fill-rule="evenodd" class="s6" d="m2.1 7.8c-0.5 1.9-0.6 3.9-0.3 5.9q1.7 0 3.4-0.3c-0.9-2.9-0.9-6 0-8.8 0.5-1.7 1.4-3.2 2.5-4.6-2.8 1.9-4.7 4.7-5.6 7.8z"/>
		</g>
	</g>
</svg>