<svg xmlns="http://www.w3.org/2000/svg" width="19" height="19" viewBox="0 0 19 19" fill="none">
  <path fill-rule="evenodd" clip-rule="evenodd" d="M12.8882 9.08044C12.9994 9.19177 13.0618 9.34268 13.0618 9.50002C13.0618 9.65737 12.9994 9.80828 12.8882 9.9196L6.95067 15.8571C6.83812 15.962 6.68925 16.0191 6.53542 16.0164C6.3816 16.0137 6.23484 15.9513 6.12605 15.8426C6.01727 15.7338 5.95495 15.587 5.95224 15.4332C5.94953 15.2794 6.00662 15.1305 6.1115 15.0179L11.6294 9.50002L6.1115 3.9821C6.00662 3.86955 5.94953 3.72068 5.95224 3.56686C5.95495 3.41304 6.01727 3.26627 6.12605 3.15749C6.23484 3.0487 6.3816 2.98639 6.53542 2.98367C6.68925 2.98096 6.83812 3.03806 6.95067 3.14294L12.8882 9.08044Z" fill="white"/>
</svg>