<svg xmlns="http://www.w3.org/2000/svg" width="19" height="19" viewBox="0 0 19 19" fill="none">
  <g opacity="1">
    <path fill-rule="evenodd" clip-rule="evenodd" d="M6.11183 9.91956C6.00064 9.80823 5.93818 9.65732 5.93818 9.49998C5.93818 9.34263 6.00064 9.19172 6.11183 9.0804L12.0493 3.14289C12.1619 3.03801 12.3108 2.98092 12.4646 2.98363C12.6184 2.98635 12.7652 3.04866 12.8739 3.15744C12.9827 3.26623 13.045 3.41299 13.0478 3.56682C13.0505 3.72064 12.9934 3.86951 12.8885 3.98206L7.37058 9.49998L12.8885 15.0179C12.9934 15.1305 13.0505 15.2793 13.0478 15.4331C13.045 15.587 12.9827 15.7337 12.8739 15.8425C12.7652 15.9513 12.6184 16.0136 12.4646 16.0163C12.3108 16.019 12.1619 15.9619 12.0493 15.8571L6.11183 9.91956Z" fill="white"/>
  </g>
</svg>