<svg version="1.2" xmlns="http://www.w3.org/2000/svg" viewBox="0 0 24 24" width="24" height="24">
	<title>image</title>
	<style>
		.s0 { fill: #20a9a0 } 
	</style>
	<path id="Layer" fill-rule="evenodd" class="s0" d="m2.3 12c0-5.4 4.3-9.8 9.7-9.8 5.4 0.1 9.8 4.4 9.8 9.8 0 5.4-4.4 9.8-9.8 9.8-5.4-0.1-9.8-4.4-9.8-9.8zm13.4-1.8q0.1-0.1 0.1-0.3 0.1-0.1 0.1-0.3-0.1-0.1-0.2-0.3 0-0.1-0.2-0.2-0.1-0.1-0.2-0.1-0.2 0-0.3 0-0.2 0-0.3 0.1-0.1 0.1-0.2 0.2l-3.2 4.5-1.7-1.6q-0.2-0.2-0.5-0.2-0.3 0-0.5 0.2-0.2 0.3-0.2 0.6 0 0.3 0.2 0.5l2.2 2.2q0.1 0.1 0.3 0.2 0.1 0.1 0.3 0 0.2 0 0.3 0 0.2-0.1 0.3-0.3z"/>
</svg>