<svg version="1.2" xmlns="http://www.w3.org/2000/svg" viewBox="0 0 24 25" width="24" height="25">
	<title>image</title>
	<style>
		.s0 { opacity: .5;fill: #ffffff } 
	</style>
	<path id="Layer" fill-rule="evenodd" class="s0" d="m4.9 13.6c0.3 0.2 0.7 0.4 1.1 0.4 0.4 0 0.8-0.2 1.1-0.4 0.2-0.3 0.4-0.7 0.4-1.1 0-0.4-0.2-0.8-0.4-1.1-0.3-0.2-0.7-0.4-1.1-0.4-0.4 0-0.8 0.2-1.1 0.4-0.2 0.3-0.4 0.7-0.4 1.1 0 0.4 0.2 0.8 0.4 1.1zm6 0c0.3 0.2 0.7 0.4 1.1 0.4 0.4 0 0.8-0.2 1.1-0.4 0.2-0.3 0.4-0.7 0.4-1.1 0-0.4-0.2-0.8-0.4-1.1-0.3-0.2-0.7-0.4-1.1-0.4-0.4 0-0.8 0.2-1.1 0.4-0.2 0.3-0.4 0.7-0.4 1.1 0 0.4 0.2 0.8 0.4 1.1zm6 0c0.3 0.2 0.7 0.4 1.1 0.4 0.4 0 0.8-0.2 1.1-0.4 0.2-0.3 0.4-0.7 0.4-1.1 0-0.4-0.2-0.8-0.4-1.1-0.3-0.2-0.7-0.4-1.1-0.4-0.4 0-0.8 0.2-1.1 0.4-0.2 0.3-0.4 0.7-0.4 1.1 0 0.4 0.2 0.8 0.4 1.1z"/>
</svg>