<svg version="1.2" xmlns="http://www.w3.org/2000/svg" viewBox="0 0 21 20" width="21" height="20">
	<title>image</title>
	<style>
		.s0 { fill: #ffffff } 
	</style>
	<path id="Layer" fill-rule="evenodd" class="s0" d="m17.5 3.8v2.3c0 0.4-0.3 0.8-0.8 0.8-0.4 0-0.8-0.4-0.8-0.8v-1.5h-1.5c-0.4 0-0.8-0.4-0.8-0.8 0-0.5 0.4-0.8 0.8-0.8h2.3q0.4 0 0.6 0.2 0.2 0.2 0.2 0.6zm-0.2 8.3q-0.2 0.2-0.6 0.2h-2.3c-0.4 0-0.8-0.3-0.8-0.7 0-0.5 0.4-0.8 0.8-0.8h1.5v-1.6c0-0.4 0.4-0.8 0.8-0.8 0.5 0 0.8 0.4 0.8 0.8v2.4q0 0.3-0.2 0.5zm-8.9-8.9q0.2-0.2 0.5-0.2h2.4c0.4 0 0.8 0.3 0.8 0.8 0 0.4-0.4 0.8-0.8 0.8h-1.6v1.5c0 0.4-0.3 0.8-0.8 0.8-0.4 0-0.7-0.4-0.7-0.8v-2.3q0-0.4 0.2-0.6zm-4.9 5.2c0-0.4 0.3-0.7 0.8-0.7h7.8c0.4 0 0.7 0.3 0.7 0.7v7.8c0 0.5-0.3 0.8-0.7 0.8h-7.8c-0.5 0-0.8-0.3-0.8-0.8zm1.6 7h6.2v-6.2h-6.2z"/>
</svg>