<svg version="1.2" xmlns="http://www.w3.org/2000/svg" viewBox="0 0 20 20" width="20" height="20">
	<title>image</title>
	<style>
		.s0 { fill: #ffffff } 
	</style>
	<path id="Layer" fill-rule="evenodd" class="s0" d="m6.5 11l2.8 2.8q0.3 0.3 0.7 0.3 0.4 0 0.7-0.3l2.8-2.8c0.4-0.4 0.4-1 0-1.4-0.4-0.4-1-0.4-1.4 0l-1.1 1.1v-7.7c0-0.6-0.5-1-1-1-0.5 0-1 0.4-1 1v7.7l-1.1-1.1c-0.4-0.4-1-0.4-1.4 0-0.4 0.4-0.4 1 0 1.4zm-2.4 2.1c0-0.6-0.4-1-1-1-0.5 0-1 0.4-1 1v2.9c0 1.1 0.9 2 2 2h11.8c1.1 0 2-0.9 2-2v-2.9c0-0.6-0.5-1-1-1-0.6 0-1 0.4-1 1v2.9h-11.8z"/>
</svg>