<svg version="1.2" xmlns="http://www.w3.org/2000/svg" viewBox="0 0 24 24" width="24" height="24">
	<title>image</title>
	<style>
		.s0 { fill: #ffffff } 
	</style>
	<path id="Layer" fill-rule="evenodd" class="s0" d="m4.1 11c0.5-4 3.9-7 7.9-7 2.5 0 4.7 1.1 6.2 2.9v-1.1c0-0.5 0.4-0.9 0.9-0.9 0.5 0 0.9 0.4 0.9 0.9v3.5c0 0.5-0.4 0.9-0.9 0.9h-0.4q0 0-0.1 0h-3c-0.5 0-0.9-0.4-0.9-0.9 0-0.5 0.4-0.9 0.9-0.9h1.6c-1.2-1.6-3.1-2.6-5.2-2.6-3.1 0-5.8 2.3-6.2 5.4 0 0.5-0.5 0.9-1 0.8-0.5-0.1-0.8-0.5-0.7-1zm5.2 3.7c0 0.5-0.4 0.9-0.9 0.9h-1.6c1.2 1.6 3.1 2.6 5.2 2.6 3.1 0 5.8-2.3 6.2-5.4 0-0.5 0.5-0.8 1-0.8 0.5 0.1 0.8 0.5 0.7 1-0.5 4-3.9 7-7.9 7-2.5 0-4.7-1.1-6.2-2.9v1.1c0 0.5-0.4 0.9-0.9 0.9-0.5 0-0.9-0.4-0.9-0.9v-3.5c0-0.5 0.4-0.9 0.9-0.9h3.5c0.5 0 0.9 0.4 0.9 0.9z"/>
</svg>