<svg version="1.2" xmlns="http://www.w3.org/2000/svg" viewBox="0 0 24 24" width="24" height="24">
	<title>image</title>
	<style>
		.s0 { fill: none;stroke: #ffffff;stroke-linecap: round;stroke-linejoin: round;stroke-opacity: .5;stroke-width: 1.5 } 
	</style>
	<path id="Layer" fill-rule="evenodd" class="s0" d="m17.9 6.9l-0.8 11.4c-0.1 0.5-0.3 0.9-0.6 1.2-0.4 0.3-0.8 0.5-1.3 0.5h-6.4c-0.5 0-0.9-0.2-1.3-0.5-0.3-0.3-0.5-0.7-0.6-1.2l-0.8-11.4m11.8 0q0.5 0.1 0.9 0.1zm-2.9-0.3q1.4 0.1 2.9 0.3zm-9.9 0.5q0.4-0.1 0.9-0.1zm0.8-0.2q1.4-0.2 2.9-0.3zm2.8-1.1c0-0.9 0.8-1.7 1.7-1.8q1.4 0 2.7 0c1 0.1 1.8 0.9 1.8 1.8v0.8q-3.1-0.3-6.2 0zm1.1 11.1l-0.3-7.4m4.5 0l-0.3 7.4"/>
</svg>