<svg version="1.2" xmlns="http://www.w3.org/2000/svg" viewBox="0 0 20 20" width="20" height="20">
	<title>image</title>
	<style>
		.s0 { fill: #909f9f } 
	</style>
	<path id="Layer" fill-rule="evenodd" class="s0" d="m2 9c0-1.1 0.3-2.2 0.8-3.2 0.5-1 1.2-1.9 2.2-2.5 0.9-0.7 1.9-1.1 3-1.2 1.1-0.2 2.3-0.1 3.3 0.3 1.1 0.4 2 1 2.8 1.8 0.8 0.8 1.3 1.8 1.6 2.9 0.3 1.1 0.4 2.2 0.2 3.3-0.3 1.1-0.7 2.1-1.4 3l3.3 3.3q0.1 0.1 0.2 0.3 0 0.1 0 0.3 0 0.1 0 0.3-0.1 0.1-0.2 0.2-0.1 0.1-0.3 0.2-0.1 0-0.2 0-0.2 0-0.3 0-0.2-0.1-0.3-0.2l-3.3-3.3c-1 0.8-2.3 1.3-3.6 1.5-1.3 0.1-2.6-0.1-3.8-0.7-1.2-0.6-2.2-1.5-2.9-2.6-0.7-1.1-1.1-2.4-1.1-3.7zm7-5.5c-1.5 0-2.9 0.6-3.9 1.6-1 1-1.6 2.4-1.6 3.9 0 1.5 0.6 2.9 1.6 3.9 1 1 2.4 1.6 3.9 1.6 1.5 0 2.9-0.6 3.9-1.6 1-1 1.6-2.4 1.6-3.9 0-1.5-0.6-2.9-1.6-3.9-1-1-2.4-1.6-3.9-1.6z"/>
</svg>