<svg version="1.2" xmlns="http://www.w3.org/2000/svg" viewBox="0 0 17 16" width="17" height="16">
	<title>image</title>
	<style>
		.s0 { fill: none;stroke: #ffffff;stroke-linecap: round;stroke-linejoin: round;stroke-width: 1.3 } 
	</style>
	<path id="Layer" fill-rule="evenodd" class="s0" d="m6.3 8.9q0.2-0.4 0.2-0.9 0-0.5-0.2-0.9m0 0c-0.3-0.7-1-1.1-1.8-1.1-1.1 0-2 0.9-2 2 0 1.1 0.9 2 2 2 0.8 0 1.5-0.4 1.8-1.1zm4.4-2.2c0.3 0.6 1 1.1 1.8 1.1 1.1 0 2-0.9 2-2 0-1.1-0.9-2-2-2-1.1 0-2 0.9-2 2q0 0.5 0.2 0.9zm0 6.2q-0.2 0.4-0.2 0.9c0 1.1 0.9 2 2 2 1.1 0 2-0.9 2-2 0-1.1-0.9-2-2-2-0.8 0-1.5 0.4-1.8 1.1zm-4.4-2.2l4.4 2.2m-4.4-4l4.4-2.2"/>
</svg>