<svg version="1.2" xmlns="http://www.w3.org/2000/svg" viewBox="0 0 24 24" width="24" height="24">
	<title>image</title>
	<style>
		.s0 { fill: #ffffff } 
	</style>
	<path id="Layer" fill-rule="evenodd" class="s0" d="m14.1 5.1l6.5 11.5c1 1.9 0 3.7-2.2 3.7h-12.8c-2.2 0-3.2-1.8-2.2-3.7l6.5-11.5c1.1-1.9 3.1-1.9 4.2 0zm-1.6 0.9c-0.4-0.7-0.7-0.6-1 0l-6.5 11.5c-0.3 0.6-0.2 1 0.6 1h12.8c0.6 0 1-0.3 0.6-1zm-0.5 11.6c-0.5 0-0.9-0.4-0.9-0.9 0-0.5 0.4-0.9 0.9-0.9 0.5 0 0.9 0.4 0.9 0.9 0 0.5-0.4 0.9-0.9 0.9zm-0.9-8.1c0-0.5 0.4-0.9 0.9-0.9 0.5 0 0.9 0.4 0.9 0.9v4.5c0 0.5-0.4 0.9-0.9 0.9-0.5 0-0.9-0.4-0.9-0.9z"/>
</svg>