<svg version="1.2" xmlns="http://www.w3.org/2000/svg" viewBox="0 0 20 20" width="20" height="20">
	<title>image</title>
	<style>
		.s0 { fill: #9ca4ab } 
	</style>
	<path id="Layer" fill-rule="evenodd" class="s0" d="m11.9 3.9l5.7 10.2c1 1.7 0 3.3-1.9 3.3h-11.4c-1.9 0-2.9-1.6-1.9-3.3l5.7-10.2c1-1.7 2.8-1.7 3.8 0zm-1.4 0.8c-0.4-0.6-0.7-0.5-1 0l-5.7 10.2c-0.3 0.5-0.2 0.9 0.5 0.9h11.4c0.5 0 0.9-0.3 0.5-0.9zm-0.5 10.3c-0.4 0-0.8-0.3-0.8-0.8 0-0.4 0.4-0.8 0.8-0.8 0.5 0 0.8 0.4 0.8 0.8 0 0.5-0.3 0.8-0.8 0.8zm-0.8-7.2c0-0.4 0.4-0.8 0.8-0.8 0.5 0 0.8 0.4 0.8 0.8v4c0 0.5-0.3 0.8-0.8 0.8-0.4 0-0.8-0.3-0.8-0.8z"/>
</svg>