<svg version="1.2" xmlns="http://www.w3.org/2000/svg" viewBox="0 0 24 24" width="24" height="24">
	<title>image</title>
	<style>
		.s0 { fill: none;stroke: #ffffff;stroke-linecap: round;stroke-linejoin: round;stroke-width: 2 } 
	</style>
	<path id="Layer" fill-rule="evenodd" class="s0" d="m19.5 11.5q0-1.8-0.1-3.7c-0.1-0.9-0.5-1.8-1.2-2.5-0.7-0.7-1.6-1.1-2.5-1.2q-3.7-0.2-7.4 0c-0.9 0.1-1.8 0.5-2.5 1.2-0.7 0.7-1.1 1.6-1.2 2.5q0 0.4 0 0.7m-0.1 4q0 1.8 0.1 3.7c0.1 0.9 0.5 1.8 1.2 2.5 0.7 0.7 1.6 1.1 2.5 1.2q3.7 0.2 7.4 0c0.9-0.1 1.8-0.5 2.5-1.2 0.7-0.7 1.1-1.6 1.2-2.5q0-0.4 0-0.7zm15-1l3-3m-3 3l-3-3m-12 4l3 3m-3-3l-3 3"/>
</svg>