<svg version="1.2" xmlns="http://www.w3.org/2000/svg" viewBox="0 0 30 30" width="30" height="30">
	<title>image</title>
	<style>
		.s0 { fill: #ffffff } 
	</style>
	<path id="Layer" fill-rule="evenodd" class="s0" d="m17.3 6c1.9 0 3.6 1.6 3.6 3.5 0 0.8-0.2 1.8-0.5 2.8q1.6 0.6 2.5 1.9c0.8 1.1 1.1 2.3 1.1 3.5 0 0.3-0.2 0.6-0.5 0.8-0.3 0.2-0.9 0.5-1.7 0.7q-0.9 0.3-1.9 0.5c0.3 0.7 0.5 1.4 0.5 2 0 0.4-0.2 0.7-0.5 0.9-0.4 0.1-1.1 0.4-2 0.7-1.5 0.4-3.1 0.7-4.7 0.7-1.6 0-3.2-0.3-4.7-0.7-0.9-0.3-1.6-0.6-2-0.7-0.3-0.2-0.5-0.5-0.5-0.9 0-1 0.5-2.4 1.5-3.5q0.9-1.1 2.2-1.6c-0.4-1.2-0.6-2.5-0.6-3.4 0-2.2 1.9-4.1 4.1-4.1q0.2 0 0.5 0.1c0.2-1.8 1.7-3.2 3.5-3.2zm-0.5 10.6q1.2 0.5 2.1 1.5 1.2-0.2 2.4-0.6 0.5-0.2 1-0.4c-0.1-0.6-0.3-1.3-0.7-1.9q-0.6-0.8-1.8-1.2c-0.6 0.8-1.4 1.4-2.5 1.4q-0.1 0-0.2 0-0.1 0.6-0.3 1.2zm0.5-3c0.9 0 1.9-2 1.9-4.1 0-0.9-0.8-1.7-1.9-1.7-1 0-1.8 0.8-1.8 1.7q0.1 0.2 0.1 0.3c1 0.8 1.7 2 1.7 3.4q0.1 0.2 0 0.4 0 0 0 0zm-8.4 5.8c-0.5 0.5-0.8 1.2-0.9 1.8q0.5 0.2 1.1 0.4c1.4 0.4 2.8 0.6 4.2 0.6 1.4 0 2.8-0.2 4.2-0.6q0.6-0.2 1.1-0.4c-0.1-0.6-0.4-1.3-0.9-1.8q-0.7-0.8-1.7-1.2c-0.6 1-1.5 1.7-2.7 1.7-1.2 0-2.1-0.7-2.7-1.7q-1 0.4-1.7 1.2zm4.4-1.3c1.1 0 2.2-2.4 2.2-4.9 0-1.2-1-2.3-2.2-2.3-1.2 0-2.3 1.1-2.3 2.3 0 2.5 1.2 4.9 2.3 4.9z"/>
</svg>