<svg version="1.2" xmlns="http://www.w3.org/2000/svg" viewBox="0 0 30 30" width="30" height="30">
	<title>image</title>
	<style>
		.s0 { fill: #ffffff } 
	</style>
	<path id="Layer" fill-rule="evenodd" class="s0" d="m17.7 14.1v5.4c0 0.5-0.4 0.9-0.9 0.9h-3.6c-0.5 0-0.9-0.4-0.9-0.9v-5.4h-3.1c-0.5 0-0.6-0.3-0.3-0.7l5.5-7.1c0.3-0.4 0.8-0.4 1.2 0l5.5 7.1c0.3 0.4 0.2 0.7-0.3 0.7zm-4.5-1.8c0.5 0 0.9 0.4 0.9 0.9v5.4h1.8v-5.4c0-0.5 0.4-0.9 0.9-0.9h1.2l-3-3.8-3 3.8zm8.2 9.9c0.5 0 0.9 0.4 0.9 0.9 0 0.5-0.4 0.9-0.9 0.9h-12.8c-0.5 0-0.9-0.4-0.9-0.9 0-0.5 0.4-0.9 0.9-0.9z"/>
</svg>