<svg version="1.2" xmlns="http://www.w3.org/2000/svg" viewBox="0 0 30 30" width="30" height="30">
	<title>image</title>
	<style>
		.s0 { fill: #ffffff } 
	</style>
	<path id="Layer" fill-rule="evenodd" class="s0" d="m19.5 14.1c0.5 0 0.9 0.4 0.9 0.9 0 0.5-0.4 0.9-0.9 0.9h-4.5c-0.5 0-0.9-0.4-0.9-0.9v-3.6c0-0.5 0.4-0.9 0.9-0.9 0.5 0 0.9 0.4 0.9 0.9v2.7zm2.7 6.3v-2.7c0-0.5 0.4-0.9 0.9-0.9 0.5 0 0.9 0.4 0.9 0.9v5.4c0 0.5-0.4 0.9-0.9 0.9-0.5 0-0.9-0.4-0.9-0.9v-0.9h-1.8v0.9c0 0.5-0.4 0.9-0.9 0.9-0.5 0-0.9-0.4-0.9-0.9v-0.9h-0.9c-0.5 0-0.9-0.4-0.9-0.9 0-0.5 0.4-0.9 0.9-0.9h0.9v-0.9c0-0.5 0.4-0.9 0.9-0.9 0.5 0 0.9 0.4 0.9 0.9v0.9zm-16.2-13.5c0-0.5 0.4-0.9 0.9-0.9h5.4c0.5 0 0.9 0.4 0.9 0.9v5.4c0 0.5-0.4 0.9-0.9 0.9h-5.4c-0.5 0-0.9-0.4-0.9-0.9zm10.8 0c0-0.5 0.4-0.9 0.9-0.9h5.4c0.5 0 0.9 0.4 0.9 0.9v5.4c0 0.5-0.4 0.9-0.9 0.9h-5.4c-0.5 0-0.9-0.4-0.9-0.9zm-10.8 10.8c0-0.5 0.4-0.9 0.9-0.9h5.4c0.5 0 0.9 0.4 0.9 0.9v5.4c0 0.5-0.4 0.9-0.9 0.9h-5.4c-0.5 0-0.9-0.4-0.9-0.9zm1.8-9.9v3.6h3.6v-3.6zm10.8 0v3.6h3.6v-3.6zm-10.8 10.8v3.6h3.6v-3.6zm-1.8-3.6c0-0.5 0.4-0.9 0.9-0.9 0.5 0 0.9 0.4 0.9 0.9 0 0.5-0.4 0.9-0.9 0.9-0.5 0-0.9-0.4-0.9-0.9zm2.7-5.4c0-0.5 0.4-0.9 0.9-0.9 0.5 0 0.9 0.4 0.9 0.9 0 0.5-0.4 0.9-0.9 0.9-0.5 0-0.9-0.4-0.9-0.9zm5.4 8.1c0-0.5 0.4-0.9 0.9-0.9h2.7c0.5 0 0.9 0.4 0.9 0.9 0 0.5-0.4 0.9-0.9 0.9h-2.7c-0.5 0-0.9-0.4-0.9-0.9zm8.1-2.7c0-0.5 0.4-0.9 0.9-0.9 0.5 0 0.9 0.4 0.9 0.9 0 0.5-0.4 0.9-0.9 0.9-0.5 0-0.9-0.4-0.9-0.9zm-8.1 8.1c0-0.5 0.4-0.9 0.9-0.9 0.5 0 0.9 0.4 0.9 0.9 0 0.5-0.4 0.9-0.9 0.9-0.5 0-0.9-0.4-0.9-0.9zm-5.4-8.1c0-0.5 0.4-0.9 0.9-0.9h2.7c0.5 0 0.9 0.4 0.9 0.9 0 0.5-0.4 0.9-0.9 0.9h-2.7c-0.5 0-0.9-0.4-0.9-0.9zm0 5.4c0-0.5 0.4-0.9 0.9-0.9 0.5 0 0.9 0.4 0.9 0.9 0 0.5-0.4 0.9-0.9 0.9-0.5 0-0.9-0.4-0.9-0.9zm10.8-10.8c0-0.5 0.4-0.9 0.9-0.9 0.5 0 0.9 0.4 0.9 0.9 0 0.5-0.4 0.9-0.9 0.9-0.5 0-0.9-0.4-0.9-0.9zm-5.4-2.7c0-0.5 0.4-0.9 0.9-0.9 0.5 0 0.9 0.4 0.9 0.9v1.8c0 0.5-0.4 0.9-0.9 0.9-0.5 0-0.9-0.4-0.9-0.9z"/>
</svg>