<svg version="1.2" xmlns="http://www.w3.org/2000/svg" viewBox="0 0 30 30" width="30" height="30">
	<title>image</title>
	<style>
		.s0 { fill: #ffffff } 
	</style>
	<path id="Layer" class="s0" d="m18.8 13.1c-0.5 0-1-0.4-1-0.9 0-0.6 0.5-1 1-1h1.6c-1.5-1.9-3.2-2.8-5.4-2.8-3.7 0-6.6 2.9-6.6 6.6 0 3.7 2.9 6.6 6.6 6.6 3.3 0 6.2-2.5 6.6-5.8 0-0.5 0.5-0.9 1-0.8 0.5 0.1 0.9 0.5 0.8 1.1-0.5 4.2-4.1 7.4-8.4 7.4-4.7 0-8.5-3.8-8.5-8.5 0-4.7 3.8-8.5 8.5-8.5 2.7 0 4.9 1.1 6.6 3.2v-1.3c0-0.5 0.4-1 1-1 0.5 0 0.9 0.5 0.9 1 0 0 0 3.8 0 3.8q0 0.4-0.3 0.6-0.2 0.3-0.6 0.3z"/>
</svg>