<svg version="1.2" xmlns="http://www.w3.org/2000/svg" viewBox="0 0 30 30" width="30" height="30">
	<title>image</title>
	<style>
		.s0 { fill: #ffffff } 
	</style>
	<path id="Layer" fill-rule="evenodd" class="s0" d="m23.5 15.9v5.7c0 1.1-0.8 1.9-1.9 1.9h-13.2c-1.1 0-1.9-0.8-1.9-1.9v-13.2c0-1.1 0.8-1.9 1.9-1.9h5.7c0.5 0 0.9 0.4 0.9 0.9 0 0.6-0.4 1-0.9 1h-5.7v13.2h13.2v-5.7c0-0.5 0.4-0.9 1-0.9 0.5 0 0.9 0.4 0.9 0.9zm-12 2.6c-0.4-0.4-0.4-1 0-1.3l8.8-8.8h-2.5c-0.5 0-0.9-0.4-0.9-1 0-0.5 0.4-0.9 0.9-0.9h4.8c0.5 0 0.9 0.4 0.9 0.9v4.8c0 0.5-0.4 0.9-0.9 0.9-0.6 0-1-0.4-1-0.9v-2.5l-8.8 8.8c-0.3 0.4-0.9 0.4-1.3 0z"/>
</svg>