<svg version="1.2" xmlns="http://www.w3.org/2000/svg" viewBox="0 0 24 24" width="24" height="24">
	<title>image</title>
	<style>
		.s0 { fill: #fefefe } 
	</style>
	<path id="Layer" class="s0" d="m3.8 6c0-0.6 0.2-1.2 0.6-1.6 0.4-0.4 1-0.6 1.6-0.6h2.3c0.5 0 1.1 0.2 1.5 0.6 0.5 0.4 0.7 1 0.7 1.6v2.3c0 0.5-0.2 1.1-0.7 1.5-0.4 0.5-1 0.7-1.5 0.7h-2.3c-0.6 0-1.2-0.2-1.6-0.7-0.4-0.4-0.6-1-0.6-1.5zm0 9.7c0-0.6 0.2-1.2 0.6-1.6 0.4-0.4 1-0.6 1.6-0.6h2.3c0.5 0 1.1 0.2 1.5 0.6 0.5 0.4 0.7 1 0.7 1.6v2.3c0 0.5-0.2 1.1-0.7 1.5-0.4 0.5-1 0.7-1.5 0.7h-2.3c-0.6 0-1.2-0.2-1.6-0.7-0.4-0.4-0.6-1-0.6-1.5zm9.7-9.8c0-0.6 0.2-1.2 0.7-1.6 0.4-0.4 1-0.6 1.6-0.6h2.2c0.6 0 1.2 0.2 1.6 0.6 0.4 0.4 0.7 1 0.7 1.6v2.3c0 0.5-0.3 1.1-0.7 1.5-0.4 0.5-1 0.7-1.6 0.7h-2.2c-0.6 0-1.2-0.2-1.6-0.7-0.5-0.4-0.7-1-0.7-1.5zm0 9.7c0-0.6 0.2-1.2 0.7-1.6 0.4-0.4 1-0.6 1.6-0.6h2.2c0.6 0 1.2 0.2 1.6 0.6 0.4 0.4 0.7 1 0.7 1.6v2.3c0 0.5-0.3 1.1-0.7 1.5-0.4 0.5-1 0.7-1.6 0.7h-2.2c-0.6 0-1.2-0.2-1.6-0.7-0.5-0.4-0.7-1-0.7-1.5z"/>
</svg>