<svg version="1.2" xmlns="http://www.w3.org/2000/svg" viewBox="0 0 24 24" width="24" height="24">
	<title>image</title>
	<style>
		.s0 { fill: #fefefe } 
	</style>
	<path id="Layer" fill-rule="evenodd" class="s0" d="m18.4 18.4c-0.9 0.8-1.9 1.5-3 1.9-1 0.5-2.2 0.7-3.4 0.7-1.2 0-2.4-0.2-3.4-0.7-1.1-0.4-2.1-1.1-3-1.9-0.8-0.9-1.5-1.9-1.9-3-0.5-1-0.7-2.2-0.7-3.4 0-2.4 0.9-4.7 2.6-6.4 1.7-1.7 4-2.6 6.4-2.6 2.4 0 4.7 0.9 6.4 2.6 1.7 1.7 2.6 4 2.6 6.4 0 1.2-0.2 2.4-0.7 3.4-0.4 1.1-1.1 2.1-1.9 3zm-5.7-12.4c0.1-0.4-0.3-0.7-0.7-0.7-0.4 0-0.7 0.3-0.7 0.7v6c0 0.4 0.3 0.8 0.7 0.8h4.5c0.4 0 0.8-0.4 0.8-0.8 0-0.4-0.4-0.7-0.8-0.7h-3.8z"/>
</svg>