<svg version="1.2" xmlns="http://www.w3.org/2000/svg" viewBox="0 0 24 24" width="24" height="24">
	<title>image</title>
	<style>
		.s0 { fill: none;stroke: #9ca4ab;stroke-linecap: round;stroke-linejoin: round;stroke-width: 1.5 } 
	</style>
	<path id="Layer" fill-rule="evenodd" class="s0" d="m21 12c0 1.2-0.2 2.4-0.7 3.4-0.4 1.1-1.1 2.1-1.9 3-0.9 0.8-1.9 1.5-3 1.9-1 0.5-2.2 0.7-3.4 0.7-1.2 0-2.4-0.2-3.4-0.7-1.1-0.4-2.1-1.1-3-1.9-0.8-0.9-1.5-1.9-1.9-3-0.5-1-0.7-2.2-0.7-3.4 0-2.4 0.9-4.7 2.6-6.4 1.7-1.7 4-2.6 6.4-2.6 2.4 0 4.7 0.9 6.4 2.6 1.7 1.7 2.6 4 2.6 6.4zm-9-6v6h4.5z"/>
</svg>