<svg version="1.2" xmlns="http://www.w3.org/2000/svg" viewBox="0 0 24 24" width="24" height="24" fill="none">
	<title>image</title>
	<style>
		.s0 { fill: none;stroke: #9ca4ab;stroke-width: 1.5 } 
	</style>
	<path id="Layer" fill-rule="evenodd" class="s0" d="m13.9 20.7c-0.2-0.2-0.3-0.5-0.3-0.8v-1l0.7 0.4v0.6q0 0.1 0.1 0.2 0 0 0 0 0.2 0 0.5 0.1c0.3 0 0.7 0.1 0.8 0.1h0.4l1.3 0.7h-1.7c-0.3 0-1.6-0.1-1.8-0.3zm-3.5-3.6c0-0.7 0.6-1.2 1.3-1.2h0.6c0.3 0 0.7 0.1 0.9 0.3 0.2 0.3 0.4 0.6 0.4 0.9v1.8zm1.3-2h0.5c0.6 0 1.1 0.2 1.5 0.5 0.4 0.4 0.6 0.9 0.6 1.5v2.1l1.7 1h1.4c0.6 0 1.2-0.3 1.7-0.7 0.4-0.4 0.6-1 0.6-1.6v-7.9c0-0.4-0.1-0.8-0.5-1.1l-6-4.8c-0.7-0.6-1.8-0.6-2.6 0.1l-5.9 4.7c-0.3 0.3-0.5 0.7-0.6 1.1v7.8c0 1.3 1.1 2.4 2.4 2.4h2.7c0.2 0 0.4-0.2 0.4-0.4v-0.5-2.2c0-1.1 0.9-2 2.1-2zm2.6 4.9q-0.1 0 0 0 0 0 0 0z"/>
</svg>