<svg version="1.2" xmlns="http://www.w3.org/2000/svg" viewBox="0 0 24 24" width="24" height="24">
	<title>image</title>
	<style>
		.s0 { fill: #fefefe } 
	</style>
	<path id="Layer" class="s0" d="m9.4 19.9v-2.8c0-0.7 0.6-1.2 1.3-1.2h2.6c0.3 0 0.7 0.1 0.9 0.3 0.2 0.3 0.4 0.6 0.4 0.9v2.8c0 0.3 0.1 0.6 0.3 0.8 0.2 0.2 0.5 0.3 0.8 0.3h1.7c0.9 0 1.7-0.3 2.2-0.9 0.6-0.6 1-1.4 1-2.2v-7.8c0-0.7-0.3-1.3-0.9-1.7l-6-4.8c-1-0.8-2.5-0.8-3.5 0.1l-5.9 4.7c-0.5 0.4-0.8 1-0.8 1.7v7.8c0 1.7 1.3 3.1 3.1 3.1h1.7c0.6 0 1.1-0.5 1.1-1.1z"/>
</svg>