<svg version="1.2" xmlns="http://www.w3.org/2000/svg" viewBox="0 0 24 24" width="24" height="24">
	<title>image</title>
	<defs>
		<clipPath clipPathUnits="userSpaceOnUse" id="cp1">
			<path d="m9.95 4.98c0-1.1 0.89-1.99 1.99-1.99 1.1 0 1.99 0.89 1.99 1.99v13.93c0 1.1-0.89 1.99-1.99 1.99-1.1 0-1.99-0.89-1.99-1.99zm-5.97 7.96c0-1.1 0.89-1.99 1.99-1.99 1.1 0 1.99 0.89 1.99 1.99v5.97c0 1.1-0.89 1.99-1.99 1.99-1.1 0-1.99-0.89-1.99-1.99zm15.93-3.98v9.96c0 1.09-0.9 1.99-2 1.99-1.09 0-1.99-0.9-1.99-1.99v-9.96c0-1.1 0.9-1.99 1.99-1.99 1.1 0 2 0.89 2 1.99z"/>
		</clipPath>
	</defs>
	<style>
		.s0 { fill: #9ca4ab } 
	</style>
	<g id="Clip-Path" clip-path="url(#cp1)">
		<path id="Layer" class="s0" d="m11.9 2c-1.6 0-2.9 1.3-2.9 3h2c0-0.6 0.4-1 0.9-1zm3 3c0-1.7-1.3-3-3-3v2c0.6 0 1 0.4 1 1zm0 13.9v-13.9h-2v13.9zm-3 3c1.7 0 3-1.3 3-3h-2c0 0.6-0.4 1-1 1zm-2.9-3c0 1.7 1.3 3 2.9 3v-2c-0.5 0-0.9-0.4-0.9-1zm0-13.9v13.9h2v-13.9zm-3 4.9c-1.7 0-3 1.4-3 3h2c0-0.5 0.4-1 1-1zm3 3c0-1.6-1.4-3-3-3v2c0.5 0 1 0.5 1 1zm0 6v-6h-2v6zm-3 3c1.6 0 3-1.3 3-3h-2c0 0.6-0.5 1-1 1zm-3-3c0 1.7 1.3 3 3 3v-2c-0.6 0-1-0.4-1-1zm0-6v6h2v-6zm13.9-3.9c0-0.6 0.5-1 1-1v-2c-1.6 0-3 1.3-3 3zm0 9.9v-9.9h-2v9.9zm1 1c-0.5 0-1-0.4-1-1h-2c0 1.7 1.4 3 3 3zm1-1c0 0.6-0.4 1-1 1v2c1.7 0 3-1.3 3-3zm0-9.9v9.9h2v-9.9zm-1-1c0.6 0 1 0.4 1 1h2c0-1.7-1.3-3-3-3z"/>
	</g>
</svg>