<svg version="1.2" xmlns="http://www.w3.org/2000/svg" viewBox="0 0 24 24" width="24" height="24">
	<title>image</title>
	<style>
		.s0 { fill: #ffffff } 
	</style>
	<path id="Layer" fill-rule="evenodd" class="s0" d="m12.9 2.3c0.5-0.1 0.9 0.1 1.2 0.4 0.4 0.3 0.6 0.7 0.7 1.1l0.2 1.1c0 0.1 0.1 0.3 0.2 0.3q0.6 0.3 1 0.6c0.2 0.1 0.4 0.1 0.5 0.1l1-0.4c0.4-0.1 0.9-0.2 1.3 0 0.4 0.1 0.8 0.4 1 0.8l0.9 1.6c0.5 0.8 0.3 1.8-0.4 2.4l-0.9 0.7c-0.1 0.1-0.1 0.2-0.1 0.4q0 0.6 0 1.2c0 0.2 0 0.3 0.1 0.4l0.9 0.7c0.3 0.3 0.5 0.7 0.6 1.1 0.1 0.4 0 0.9-0.2 1.3l-0.9 1.6c-0.2 0.4-0.6 0.7-1 0.8-0.4 0.2-0.9 0.1-1.3 0l-1-0.4c-0.1 0-0.3 0-0.5 0.1q-0.4 0.3-1 0.6c-0.1 0.1-0.2 0.2-0.2 0.3l-0.2 1.1c-0.2 0.9-1 1.5-1.9 1.5h-1.8c-0.9 0-1.7-0.6-1.9-1.5l-0.1-1.1c-0.1-0.1-0.2-0.2-0.3-0.3q-0.6-0.3-1-0.6c-0.2-0.1-0.4-0.1-0.5-0.1l-1 0.4c-0.4 0.1-0.9 0.2-1.3 0-0.4-0.1-0.8-0.4-1-0.8l-0.9-1.6c-0.2-0.4-0.3-0.9-0.2-1.3 0.1-0.4 0.3-0.8 0.6-1.1l0.9-0.7c0.1-0.1 0.1-0.2 0.1-0.4q0-0.6 0-1.2c0-0.2 0-0.3-0.1-0.4l-0.9-0.7c-0.3-0.3-0.5-0.7-0.6-1.1-0.1-0.4 0-0.9 0.2-1.3l0.9-1.6c0.2-0.4 0.6-0.7 1-0.8 0.4-0.2 0.9-0.1 1.3 0l1 0.4c0.1 0 0.3 0 0.5-0.1q0.4-0.3 1-0.6c0.1-0.1 0.2-0.2 0.2-0.3l0.2-1.1c0.2-0.9 1-1.5 1.9-1.5zm-0.9 13.5c1 0 1.9-0.4 2.6-1.1 0.7-0.8 1.1-1.7 1.1-2.7 0-1-0.4-1.9-1.1-2.7-0.7-0.7-1.6-1-2.6-1-1 0-2 0.3-2.7 1-0.7 0.8-1.1 1.7-1.1 2.7 0 1 0.4 1.9 1.1 2.7 0.7 0.7 1.7 1.1 2.7 1.1z"/>
</svg>