<svg version="1.2" xmlns="http://www.w3.org/2000/svg" viewBox="0 0 24 24" width="24" height="24">
	<title>image</title>
	<style>
		.s0 { fill: none;stroke: #9ca4ab;stroke-linecap: round;stroke-linejoin: round;stroke-width: 1.5 } 
	</style>
	<path id="Layer" fill-rule="evenodd" class="s0" d="m9.6 3.9c0.1-0.5 0.6-0.9 1.1-0.9h2.6c0.5 0 1 0.4 1.1 0.9l0.2 1.3c0.1 0.4 0.3 0.7 0.7 0.9q0.1 0.1 0.2 0.1c0.3 0.2 0.7 0.3 1.1 0.1l1.2-0.4q0.4-0.2 0.8 0 0.3 0.1 0.5 0.5l1.3 2.2q0.2 0.4 0.2 0.8-0.1 0.4-0.4 0.7l-1 0.8c-0.3 0.2-0.5 0.6-0.5 1q0.1 0.1 0 0.2c0 0.4 0.2 0.8 0.5 1l1 0.8c0.4 0.4 0.5 1 0.2 1.5l-1.3 2.2q-0.2 0.4-0.5 0.5-0.4 0.2-0.8 0l-1.2-0.4c-0.4-0.2-0.8-0.1-1.1 0.1q-0.1 0-0.2 0.1c-0.4 0.2-0.6 0.5-0.7 0.9l-0.2 1.3c-0.1 0.5-0.6 0.9-1.1 0.9h-2.6c-0.5 0-1-0.4-1.1-0.9l-0.2-1.3c-0.1-0.4-0.3-0.7-0.7-0.9q-0.1-0.1-0.2-0.1c-0.3-0.2-0.7-0.3-1.1-0.1l-1.2 0.4q-0.4 0.2-0.8 0-0.3-0.1-0.5-0.5l-1.3-2.2q-0.2-0.4-0.2-0.8 0.1-0.4 0.4-0.7l1-0.8c0.3-0.2 0.5-0.6 0.5-1q-0.1-0.1 0-0.2c0-0.4-0.2-0.8-0.5-1l-1-0.8q-0.3-0.3-0.4-0.7 0-0.4 0.2-0.8l1.3-2.2q0.2-0.4 0.5-0.5 0.4-0.2 0.8 0l1.2 0.4c0.4 0.2 0.8 0.1 1.1-0.1q0.1 0 0.2-0.1c0.4-0.2 0.6-0.5 0.7-0.9z"/>
	<path id="Layer" fill-rule="evenodd" class="s0" d="m15 12c0 0.8-0.3 1.6-0.9 2.1-0.5 0.6-1.3 0.9-2.1 0.9-0.8 0-1.6-0.3-2.1-0.9-0.6-0.5-0.9-1.3-0.9-2.1 0-0.8 0.3-1.6 0.9-2.1 0.5-0.6 1.3-0.9 2.1-0.9 0.8 0 1.6 0.3 2.1 0.9 0.6 0.5 0.9 1.3 0.9 2.1z"/>
</svg>