<svg version="1.2" xmlns="http://www.w3.org/2000/svg" viewBox="0 0 28 28" width="28" height="28">
	<title>image</title>
	<style>
		.s0 { fill: #e8f9dc } 
		.s1 { fill: #6ddbd4 } 
	</style>
	<path id="Layer" fill-rule="evenodd" class="s0" d="m5.8 12.8c0 0.7-0.5 1.2-1.1 1.2-0.7 0-1.2-0.5-1.2-1.2 0-4.5 3.7-8.1 8.2-8.1h8.8l-1.5-1.5-0.1-0.2c-0.3-0.4-0.3-1.1 0.1-1.5 0.5-0.4 1.2-0.4 1.7 0l3.5 3.5 0.1 0.1c0.3 0.5 0.3 1.1-0.1 1.6l-3.5 3.5-0.2 0.1c-0.4 0.3-1.1 0.3-1.5-0.1l-0.1-0.2c-0.3-0.4-0.3-1.1 0.1-1.5l1.5-1.5h-8.8-0.3c-3.1 0.1-5.6 2.7-5.6 5.8z"/>
	<path id="Layer" fill-rule="evenodd" class="s1" d="m9 26.5c-0.5 0.4-1.2 0.4-1.7 0l-3.5-3.5q0-0.1-0.1-0.1c-0.3-0.5-0.3-1.1 0.1-1.6l3.5-3.5 0.2-0.1c0.4-0.3 1.1-0.3 1.5 0.1l0.1 0.2c0.3 0.4 0.3 1.1-0.1 1.5l-1.5 1.5h8.8 0.3c3.1-0.1 5.6-2.7 5.6-5.8 0-0.7 0.5-1.2 1.1-1.2 0.7 0 1.2 0.5 1.2 1.2 0 4.5-3.7 8.1-8.2 8.1h-8.8l1.5 1.5 0.1 0.2c0.3 0.4 0.3 1.1-0.1 1.5z"/>
</svg>