<svg version="1.2" xmlns="http://www.w3.org/2000/svg" viewBox="0 0 20 20" width="20" height="20">
	<title>image</title>
	<style>
		.s0 { fill: none;stroke: #ffffff;stroke-linecap: round;stroke-linejoin: round;stroke-width: 2 } 
	</style>
	<path id="Layer" fill-rule="evenodd" class="s0" d="m18 10q0 1.6-0.6 3.1-0.6 1.4-1.7 2.6-1.2 1.1-2.6 1.7-1.5 0.6-3.1 0.6-1.6 0-3.1-0.6-1.4-0.6-2.6-1.7-1.1-1.2-1.7-2.6-0.6-1.5-0.6-3.1c0-2.1 0.8-4.2 2.3-5.7 1.5-1.5 3.6-2.3 5.7-2.3 2.1 0 4.2 0.8 5.7 2.3 1.5 1.5 2.3 3.6 2.3 5.7zm-8 3.3zm0-6v3.4"/>
</svg>