<svg version="1.2" xmlns="http://www.w3.org/2000/svg" viewBox="0 0 20 20" width="20" height="20">
	<title>image</title>
	<style>
		.s0 { fill: #6c7275 } 
	</style>
	<path id="Layer" fill-rule="evenodd" class="s0" d="m5 6.7c0-2.8 2.2-5 5-5 2.8 0 5 2.2 5 5v0.9q0.4 0.1 0.7 0.3c0.6 0.3 1.1 0.8 1.4 1.4 0.2 0.4 0.3 0.9 0.4 1.3q0 0.7 0 1.7v1.2q0 1 0 1.7c-0.1 0.5-0.2 0.9-0.4 1.3-0.3 0.6-0.8 1.2-1.4 1.5-0.4 0.2-0.9 0.3-1.3 0.3q-0.7 0-1.7 0h-5.4q-1 0-1.7 0c-0.4 0-0.9-0.1-1.3-0.3-0.6-0.3-1.1-0.9-1.4-1.5-0.2-0.4-0.3-0.8-0.4-1.3q0-0.7 0-1.7v-1.2q0-1 0-1.7c0.1-0.4 0.2-0.9 0.4-1.3 0.3-0.6 0.8-1.1 1.4-1.4q0.3-0.2 0.7-0.3zm5-3.3c-1.8 0-3.3 1.5-3.3 3.3v0.9h6.6v-0.9c0-1.8-1.5-3.3-3.3-3.3zm0.8 8.7c0-0.4-0.3-0.8-0.8-0.8-0.5 0-0.8 0.4-0.8 0.8v1.7c0 0.5 0.3 0.8 0.8 0.8 0.5 0 0.8-0.3 0.8-0.8z"/>
</svg>