<svg version="1.2" xmlns="http://www.w3.org/2000/svg" viewBox="0 0 20 20" width="20" height="20">
	<title>image</title>
	<style>
		.s0 { fill: none;stroke: #ffffff;stroke-linecap: round;stroke-linejoin: round;stroke-width: 2 } 
	</style>
	<path id="Layer" fill-rule="evenodd" class="s0" d="m14.2 13.2q-0.8 0.9-1.9 1.3-1.1 0.5-2.3 0.5-1.2 0-2.3-0.5-1.1-0.4-1.9-1.3m1.2-7.2c0 0.6-0.2 1-0.5 1-0.3 0-0.5-0.4-0.5-1 0-0.6 0.2-1 0.5-1 0.3 0 0.5 0.4 0.5 1zm-0.5 0zm7.5 0c0 0.5-0.2 1-0.5 1-0.3 0-0.5-0.5-0.5-1 0-0.6 0.2-1 0.5-1 0.3 0 0.5 0.4 0.5 1zm-0.5 0z"/>
</svg>