<svg version="1.2" xmlns="http://www.w3.org/2000/svg" viewBox="0 0 30 30" width="30" height="30">
	<title>image</title>
	<style>
		.s0 { fill: #20a9a0 } 
	</style>
	<path id="Layer" fill-rule="evenodd" class="s0" d="m24 15c0 5-4 9-9 9-5 0-9-4-9-9 0-5 4-9 9-9 5 0 9 4 9 9zm-3-3q-0.6 0.2-1.3 0.3c0.5-0.3 0.8-0.7 1-1.3q-0.7 0.4-1.5 0.6c-0.4-0.4-1-0.7-1.7-0.7-1.2 0-2.3 1-2.3 2.3q0 0.3 0.1 0.5c-1.9-0.1-3.6-1-4.8-2.4q-0.3 0.5-0.3 1.2c0 0.8 0.4 1.5 1 1.9q-0.5 0-1-0.3 0 0 0 0c0 1.1 0.8 2.1 1.9 2.3q-0.3 0.1-0.7 0.1-0.2 0-0.4-0.1c0.3 0.9 1.2 1.6 2.2 1.6-0.8 0.6-1.8 1-2.9 1q-0.3 0-0.6 0c1.1 0.6 2.3 1 3.6 1 4.2 0 6.6-3.5 6.6-6.6q0-0.1-0.1-0.2 0.7-0.5 1.2-1.2z"/>
</svg>