<svg version="1.2" xmlns="http://www.w3.org/2000/svg" viewBox="0 0 30 30" width="30" height="30">
	<title>image</title>
	<style>
		.s0 { fill: #20a9a0 } 
	</style>
	<path id="Layer" class="s0" d="m14 6.3c-4.2 0.5-7.5 3.8-7.9 7.9-0.5 4.2 1.9 8 5.6 9.4 0.3 0.1 0.6-0.1 0.6-0.4v-1.5c0 0-0.4 0.1-0.8 0.1-1.3 0-1.8-1.1-1.9-1.7-0.1-0.3-0.3-0.6-0.6-0.9-0.2-0.1-0.3-0.1-0.3-0.2 0-0.1 0.2-0.1 0.3-0.1 0.6 0 1 0.6 1.2 0.9 0.5 0.7 1 0.9 1.3 0.9 0.3 0 0.6-0.1 0.8-0.2 0.1-0.7 0.3-1.3 0.9-1.6-2.1-0.5-3.6-1.7-3.6-3.7 0-0.9 0.4-1.9 1.1-2.7-0.1-0.1-0.2-0.6-0.2-1.2 0-0.4 0-0.9 0.2-1.5 0 0 1.3 0 2.6 1.2 0.4-0.2 1.1-0.3 1.7-0.3 0.6 0 1.2 0.1 1.8 0.3 1.2-1.2 2.5-1.2 2.5-1.2 0.2 0.6 0.2 1.1 0.2 1.5 0 0.7-0.1 1.1-0.2 1.2 0.6 0.8 1.1 1.7 1.1 2.7 0 2-1.5 3.2-3.6 3.7 0.5 0.4 0.9 1.2 0.9 2v2.4c0 0.2 0.3 0.5 0.6 0.4 3.4-1.3 5.7-4.6 5.7-8.4 0-5.4-4.6-9.6-10-9z"/>
</svg>