<svg version="1.2" xmlns="http://www.w3.org/2000/svg" viewBox="0 0 30 30" width="30" height="30">
	<title>image</title>
	<style>
		.s0 { fill: #20a9a0 } 
	</style>
	<path id="Layer" fill-rule="evenodd" class="s0" d="m15 6c5 0 9 4 9 9 0 5-4 9-9 9-5 0-9-4-9-9 0-5 4-9 9-9zm3.1 12.7c0.2-0.5 0.9-5.6 1-6.6q0.1-0.5-0.2-0.6c-0.2-0.1-0.6 0-1 0.1-0.5 0.2-7.3 3.1-7.7 3.2-0.4 0.2-0.7 0.4-0.7 0.6 0 0.2 0.1 0.3 0.4 0.4 0.3 0.1 1 0.3 1.5 0.5 0.4 0.1 0.9 0 1.2-0.2 0.2-0.2 3.6-2.4 3.8-2.6 0.3-0.2 0.5 0 0.3 0.2-0.2 0.2-2.5 2.5-2.8 2.8-0.4 0.4-0.1 0.7 0.1 0.9 0.3 0.2 2.3 1.5 2.6 1.8q0.5 0.3 0.9 0.3c0.3 0 0.5-0.4 0.6-0.8z"/>
</svg>