<svg version="1.2" xmlns="http://www.w3.org/2000/svg" viewBox="0 0 30 30" width="30" height="30">
	<title>image</title>
	<style>
		.s0 { fill: #20a9a0 } 
	</style>
	<path id="Layer" fill-rule="evenodd" class="s0" d="m24 15c0 5-4 9-9 9-5 0-9-4-9-9 0-5 4-9 9-9 5 0 9 4 9 9zm-14.3-5.5c-1.1 1.1-1.9 2.5-2.2 4.1-0.3 1.5-0.1 3.1 0.5 4.5 0.7 1.4 1.8 2.6 3.1 3.4 1.3 0.8 2.9 1.2 4.5 1.1 1.5-0.1 3-0.7 4.2-1.7 1.2-1 2.1-2.3 2.5-3.8 0.5-1.5 0.4-3.1-0.1-4.6-0.5-1.5-1.5-2.8-2.7-3.7q-0.5 0.8-1.3 1.3l-1.1 0.7 0.1 0.4q0.1 0.2 0.1 0.4 0 0.2-0.2 0.4-0.2 0.2-0.4 0.2-0.3 0.1-0.5 0l-0.5-0.3q-0.3-0.2-0.7-0.1-0.3 0-0.5 0.3l-0.2 0.1c-0.4 0.4-0.4 1.1 0 1.5l0.3 0.2c0.3 0.3 0.6 0.4 0.9 0.3l1.1-0.2c0.3 0 0.6 0.1 0.8 0.3l1.3 1c0.3 0.2 0.4 0.6 0.3 1-0.4 1.4-1.1 2.7-2.1 3.7l-0.7 0.7q-0.2 0.2-0.5 0.3-0.4 0-0.7-0.1l-0.1-0.1q-0.3-0.1-0.4-0.4-0.2-0.2-0.2-0.5v-1c0-0.3-0.1-0.5-0.3-0.7l-1.2-1.3q-0.3-0.2-0.3-0.6-0.1-0.3 0.1-0.6l0.3-0.7-1.5-1.5c-0.8-0.8-1.3-1.9-1.5-3z"/>
</svg>